<svg width="360" height="360" viewBox="0 0 360 360" fill="none" xmlns="http://www.w3.org/2000/svg">
<g id="Frame">
<path id="Vector" d="M104.364 278.071C104.288 278.071 104.213 278.06 104.137 278.035C101.347 277.106 98.6833 275.803 96.2281 274.169C95.8969 273.949 95.8069 273.503 96.0265 273.172C96.2461 272.84 96.6925 272.75 97.0237 272.97C99.3745 274.536 101.923 275.778 104.591 276.667C104.969 276.793 105.17 277.2 105.048 277.578C104.947 277.88 104.666 278.071 104.364 278.071ZM90.1405 268.618C89.9389 268.618 89.7409 268.535 89.6005 268.373C87.6529 266.155 86.0077 263.693 84.7117 261.054C84.5353 260.698 84.6829 260.266 85.0393 260.089C85.3957 259.913 85.8277 260.06 86.0041 260.417C87.2461 262.944 88.8193 265.298 90.6841 267.423C90.9469 267.721 90.9181 268.175 90.6193 268.438C90.4825 268.556 90.3133 268.618 90.1441 268.618H90.1405ZM82.6165 253.289C82.2781 253.289 81.9757 253.051 81.9109 252.706C81.5077 250.625 81.3061 248.483 81.3061 246.344V243.968C81.3061 243.572 81.6301 243.248 82.0261 243.248C82.4221 243.248 82.7461 243.572 82.7461 243.968V246.344C82.7461 248.393 82.9405 250.441 83.3257 252.432C83.4013 252.821 83.1457 253.199 82.7569 253.274C82.7101 253.282 82.6633 253.289 82.6201 253.289H82.6165ZM82.0261 236.048C81.6301 236.048 81.3061 235.724 81.3061 235.328V226.688C81.3061 226.292 81.6301 225.968 82.0261 225.968C82.4221 225.968 82.7461 226.292 82.7461 226.688V235.328C82.7461 235.724 82.4221 236.048 82.0261 236.048ZM82.0261 218.768C81.6301 218.768 81.3061 218.444 81.3061 218.048V214.823C81.3061 214.427 81.6301 214.103 82.0261 214.103C82.4221 214.103 82.7461 214.427 82.7461 214.823V218.048C82.7461 218.444 82.4221 218.768 82.0261 218.768ZM247.291 312.188C245.876 312.188 244.534 311.706 243.41 310.788C243.101 310.536 243.047 310.075 243.299 309.769C243.551 309.46 243.994 309.409 244.303 309.658C245.185 310.374 246.215 310.748 247.295 310.748C248.724 310.748 250.121 310.09 251.024 308.981C251.276 308.671 251.73 308.628 252.036 308.88C252.342 309.132 252.389 309.586 252.137 309.892C250.96 311.328 249.149 312.188 247.291 312.188ZM237.146 305.482C236.988 305.482 236.826 305.428 236.693 305.32L229.993 299.866C229.684 299.614 229.637 299.16 229.889 298.854C230.141 298.545 230.594 298.498 230.9 298.75L237.6 304.204C237.91 304.456 237.956 304.909 237.704 305.215C237.564 305.392 237.355 305.482 237.146 305.482ZM252.788 301.799C252.392 301.799 252.068 301.475 252.068 301.079V292.439C252.068 292.043 252.392 291.719 252.788 291.719C253.184 291.719 253.508 292.043 253.508 292.439V301.079C253.508 301.475 253.184 301.799 252.788 301.799ZM223.744 294.574C223.585 294.574 223.423 294.52 223.29 294.412L216.59 288.958C216.281 288.706 216.234 288.252 216.486 287.946C216.738 287.636 217.192 287.59 217.498 287.842L224.197 293.296C224.507 293.548 224.554 294.001 224.302 294.307C224.161 294.484 223.952 294.574 223.744 294.574ZM252.788 284.519C252.392 284.519 252.068 284.195 252.068 283.799V278.712H257.062C257.458 278.712 257.782 279.036 257.782 279.432C257.782 279.828 257.458 280.152 257.062 280.152H253.508V283.799C253.508 284.195 253.184 284.519 252.788 284.519ZM210.344 283.666C210.186 283.666 210.024 283.612 209.891 283.504L205.773 280.152L202.95 280.138C202.554 280.138 202.23 279.814 202.234 279.414C202.234 279.018 202.558 278.698 202.954 278.698L206.284 278.712L210.794 282.384C211.104 282.636 211.151 283.09 210.899 283.396C210.758 283.572 210.55 283.662 210.341 283.662L210.344 283.666ZM267.513 280.156H265.705C265.309 280.156 264.985 279.832 264.985 279.436C264.985 279.04 265.309 278.716 265.705 278.716H267.513C269.748 278.716 271.98 278.485 274.147 278.024C274.536 277.942 274.918 278.19 275 278.579C275.083 278.968 274.835 279.349 274.446 279.432C272.182 279.911 269.849 280.152 267.516 280.152L267.513 280.156ZM194.314 280.102L187.078 280.069C186.682 280.069 186.358 279.745 186.361 279.346C186.361 278.95 186.685 278.629 187.081 278.629L194.317 278.662C194.713 278.662 195.037 278.986 195.034 279.385C195.034 279.781 194.71 280.102 194.314 280.102ZM282.409 276.57C282.146 276.57 281.894 276.426 281.768 276.178C281.588 275.825 281.725 275.389 282.082 275.209C284.587 273.924 286.913 272.311 289.004 270.41C289.3 270.144 289.753 270.166 290.023 270.457C290.29 270.752 290.268 271.206 289.976 271.476C287.795 273.46 285.361 275.148 282.744 276.491C282.64 276.545 282.528 276.57 282.416 276.57H282.409ZM295.042 265.082C294.908 265.082 294.775 265.046 294.653 264.967C294.318 264.751 294.221 264.308 294.433 263.974C295.956 261.598 297.155 259.027 298.001 256.342C298.12 255.964 298.526 255.751 298.904 255.87C299.282 255.989 299.495 256.392 299.376 256.774C298.494 259.582 297.241 262.264 295.65 264.751C295.513 264.967 295.279 265.082 295.042 265.082ZM300.157 248.792C300.157 248.792 300.139 248.792 300.128 248.792C299.732 248.778 299.423 248.443 299.437 248.044C299.455 247.619 299.463 247.187 299.463 246.762V239.432C299.463 239.036 299.787 238.712 300.183 238.712C300.579 238.712 300.903 239.036 300.903 239.432V246.762C300.903 247.205 300.895 247.655 300.877 248.101C300.863 248.49 300.543 248.792 300.157 248.792ZM300.183 231.512C299.787 231.512 299.463 231.188 299.463 230.792V222.152C299.463 221.756 299.787 221.432 300.183 221.432C300.579 221.432 300.903 221.756 300.903 222.152V230.792C300.903 231.188 300.579 231.512 300.183 231.512ZM300.183 214.232C299.787 214.232 299.463 213.908 299.463 213.512V204.872C299.463 204.476 299.787 204.152 300.183 204.152C300.579 204.152 300.903 204.476 300.903 204.872V213.512C300.903 213.908 300.579 214.232 300.183 214.232ZM300.183 196.952C299.787 196.952 299.463 196.628 299.463 196.232V187.592C299.463 187.196 299.787 186.872 300.183 186.872C300.579 186.872 300.903 187.196 300.903 187.592V196.232C300.903 196.628 300.579 196.952 300.183 196.952ZM300.136 179.672C299.754 179.672 299.437 179.374 299.416 178.988C299.268 176.166 298.746 173.38 297.868 170.712C297.745 170.334 297.95 169.927 298.328 169.805C298.706 169.679 299.113 169.888 299.239 170.266C300.157 173.056 300.701 175.968 300.856 178.916C300.877 179.312 300.571 179.651 300.175 179.672C300.161 179.672 300.15 179.672 300.136 179.672ZM294.804 163.454C294.57 163.454 294.34 163.339 294.203 163.13C292.651 160.78 290.794 158.638 288.684 156.769C288.385 156.506 288.36 156.049 288.623 155.754C288.886 155.455 289.343 155.43 289.638 155.693C291.845 157.648 293.785 159.883 295.405 162.342C295.625 162.673 295.531 163.12 295.2 163.339C295.078 163.418 294.941 163.458 294.804 163.458V163.454ZM282.017 152.136C281.909 152.136 281.801 152.111 281.696 152.06C279.169 150.808 276.487 149.893 273.723 149.35C273.334 149.274 273.078 148.892 273.154 148.504C273.229 148.115 273.607 147.859 274 147.935C276.89 148.504 279.695 149.458 282.337 150.768C282.694 150.944 282.838 151.376 282.661 151.733C282.535 151.985 282.28 152.132 282.017 152.132V152.136ZM265.263 148.745H256.623C256.227 148.745 255.903 148.421 255.903 148.025C255.903 147.629 256.227 147.305 256.623 147.305H265.263C265.659 147.305 265.983 147.629 265.983 148.025C265.983 148.421 265.659 148.745 265.263 148.745ZM91.3609 81.5005C75.7297 81.5005 63.0613 94.1725 63.0613 109.8C63.0613 125.428 75.7333 138.1 91.3609 138.1C106.988 138.1 119.66 125.428 119.66 109.8C119.66 94.1725 106.988 81.5005 91.3609 81.5005ZM102.92 112.712C102.92 117.367 101.956 120.924 100.033 123.39C98.1073 125.856 95.2885 127.087 91.5733 127.087C87.8581 127.087 85.1041 125.878 83.1601 123.458C81.2197 121.039 80.2261 117.572 80.1793 113.058V106.862C80.1793 102.164 81.1549 98.5969 83.1025 96.1633C85.0501 93.7297 87.8581 92.5129 91.5265 92.5129C95.1949 92.5129 97.9993 93.7189 99.9397 96.1309C101.88 98.5429 102.874 102.006 102.92 106.52V112.716V112.712Z" fill="#D7D7D7"/>
<path id="Vector_2" d="M91.53 97.8984C89.9568 97.8984 88.7976 98.5032 88.0524 99.7128C87.3036 100.922 86.9076 102.816 86.8608 105.394V113.584C86.8608 116.327 87.2352 118.368 87.9804 119.704C88.7292 121.039 89.9244 121.705 91.5732 121.705C93.222 121.705 94.3848 121.064 95.1084 119.786C95.832 118.508 96.21 116.546 96.2424 113.911V105.908C96.2424 103.118 95.8608 101.084 95.0976 99.8136C94.3344 98.5428 93.1464 97.9056 91.5264 97.9056L91.53 97.8984Z" fill="#D7D7D7"/>
<g id="Group" opacity="0.25">
<path id="Vector_3" d="M215.716 95.209H144.468C142.013 95.209 140.022 97.1995 140.022 99.655V99.8998C140.022 102.355 142.013 104.346 144.468 104.346H215.716C218.171 104.346 220.162 102.355 220.162 99.8998V99.655C220.162 97.1995 218.171 95.209 215.716 95.209Z" fill="#D7D7D7"/>
<path id="Vector_4" d="M215.716 115.257H144.468C142.013 115.257 140.022 117.248 140.022 119.703V119.948C140.022 122.404 142.013 124.394 144.468 124.394H215.716C218.171 124.394 220.162 122.404 220.162 119.948V119.703C220.162 117.248 218.171 115.257 215.716 115.257Z" fill="#D7D7D7"/>
</g>
<path id="Vector_5" opacity="0.5" d="M220.162 48.5317H67.2119C49.1651 48.5317 34.5383 63.1621 34.5383 81.2053V147.269C34.5383 165.316 49.1651 179.943 67.2119 179.943H81.9323V206.496C81.9323 206.853 81.9647 207.198 82.0295 207.529C82.7531 211.468 87.5555 213.426 90.8567 210.741L128.693 179.943H220.169C237.96 179.943 252.432 165.723 252.832 148.025C252.839 147.773 252.842 147.521 252.842 147.269V81.2053C252.842 63.1621 238.212 48.5317 220.169 48.5317H220.162ZM63.0611 109.804C63.0611 94.1725 75.7295 81.5041 91.3607 81.5041C106.992 81.5041 119.66 94.1725 119.66 109.804C119.66 125.435 106.988 138.103 91.3607 138.103C75.7331 138.103 63.0611 125.431 63.0611 109.804ZM215.59 124.398H144.59C142.063 124.398 140.018 122.353 140.018 119.826C140.018 117.299 142.063 115.258 144.59 115.258H215.59C218.117 115.258 220.162 117.303 220.162 119.826C220.162 122.35 218.117 124.398 215.59 124.398ZM215.59 104.346H144.59C142.063 104.346 140.018 102.301 140.018 99.7777C140.018 98.5141 140.53 97.3729 141.354 96.5485C142.178 95.7241 143.327 95.2093 144.587 95.2093H215.586C218.113 95.2093 220.158 97.2541 220.158 99.7813C220.158 102.309 218.113 104.35 215.586 104.35L215.59 104.346Z" fill="#D7D7D7"/>
<path id="Vector_6" d="M87.4152 212.695C86.6988 212.695 85.9752 212.569 85.2732 212.31C83.1924 211.543 81.7128 209.805 81.3204 207.655C81.2484 207.281 81.2124 206.889 81.2124 206.493V180.659H67.212C48.798 180.659 33.8184 165.679 33.8184 147.265V81.2017C33.8184 62.7877 48.798 47.8081 67.212 47.8081H220.165C238.579 47.8081 253.559 62.7877 253.559 81.2017V147.265C253.559 147.525 253.559 147.784 253.548 148.043C253.35 156.795 249.79 164.999 243.522 171.133C237.247 177.279 228.949 180.659 220.165 180.659H128.948L91.3104 211.295C90.18 212.217 88.812 212.692 87.4188 212.692L87.4152 212.695ZM67.2084 49.2517C49.59 49.2517 35.2548 63.5869 35.2548 81.2053V147.269C35.2548 164.887 49.59 179.223 67.2084 179.223H82.6488V206.496C82.6488 206.802 82.6776 207.105 82.7316 207.393C83.034 209.038 84.168 210.37 85.77 210.96C87.3756 211.551 89.0604 211.27 90.396 210.183L128.43 179.223H220.162C237.384 179.223 251.716 165.219 252.104 148.011C252.112 147.759 252.115 147.517 252.115 147.269V81.2053C252.115 63.5869 237.78 49.2517 220.162 49.2517H67.212H67.2084Z" fill="#D7D7D7"/>
<path id="Vector_7" d="M91.3643 138.823C75.3623 138.823 62.3447 125.806 62.3447 109.804C62.3447 93.8018 75.3623 80.7842 91.3643 80.7842C107.366 80.7842 120.384 93.8018 120.384 109.804C120.384 125.806 107.366 138.823 91.3643 138.823ZM91.3643 82.2206C76.1543 82.2206 63.7847 94.5938 63.7847 109.8C63.7847 125.007 76.1579 137.38 91.3643 137.38C106.571 137.38 118.944 125.007 118.944 109.8C118.944 94.5938 106.571 82.2206 91.3643 82.2206ZM215.59 125.118H144.59C141.674 125.118 139.298 122.746 139.298 119.826C139.298 116.907 141.671 114.538 144.59 114.538H215.59C218.506 114.538 220.882 116.91 220.882 119.826C220.882 122.742 218.509 125.118 215.59 125.118ZM144.59 115.981C142.466 115.981 140.738 117.706 140.738 119.83C140.738 121.954 142.466 123.682 144.59 123.682H215.59C217.714 123.682 219.442 121.954 219.442 119.83C219.442 117.706 217.714 115.981 215.59 115.981H144.59ZM215.59 105.066H144.59C141.674 105.066 139.298 102.694 139.298 99.7778C139.298 98.363 139.849 97.0346 140.846 96.0374C141.847 95.0366 143.176 94.4858 144.59 94.4858H215.59C218.506 94.4858 220.882 96.8582 220.882 99.7778C220.882 102.697 218.509 105.066 215.59 105.066ZM144.59 95.9294C143.561 95.9294 142.592 96.329 141.865 97.0598C141.138 97.7906 140.738 98.7518 140.738 99.7814C140.738 101.902 142.466 103.63 144.59 103.63H215.59C217.714 103.63 219.442 101.905 219.442 99.7814C219.442 97.6574 217.714 95.9294 215.59 95.9294H144.59Z" fill="#D7D7D7"/>
<path id="Vector_8" opacity="0.35" d="M265.903 99.3382V117.363C265.903 117.432 265.903 117.5 265.903 117.569C266.011 122.396 269.96 126.277 274.813 126.277H299.772L310.093 134.679C310.993 135.41 312.304 134.877 312.502 133.805C312.52 133.715 312.527 133.621 312.527 133.524V126.281H316.544C321.469 126.281 325.458 122.292 325.458 117.367V99.3418C325.458 94.417 321.469 90.4282 316.544 90.4282H274.813C269.888 90.4282 265.9 94.4206 265.9 99.3418L265.903 99.3382ZM182.3 265.925V288.756C182.3 288.842 182.3 288.929 182.297 289.019C182.16 295.135 177.156 300.049 171.007 300.049H139.392L126.317 310.694C125.176 311.623 123.516 310.946 123.268 309.585C123.246 309.47 123.235 309.351 123.235 309.229V300.053H118.148C111.91 300.053 106.855 294.998 106.855 288.759V265.928C106.855 259.693 111.91 254.635 118.148 254.635H171.011C177.246 254.635 182.304 259.693 182.304 265.928L182.3 265.925Z" fill="#D7D7D7"/>
<path id="Vector_9" d="M311.033 135.738C310.536 135.738 310.046 135.569 309.643 135.237L299.52 126.997H274.817C269.622 126.997 265.302 122.774 265.187 117.587C265.187 117.515 265.187 117.439 265.187 117.363V99.3382C265.187 94.0246 269.51 89.7046 274.82 89.7046H316.552C321.865 89.7046 326.185 94.0282 326.185 99.3382V117.363C326.185 122.677 321.862 126.997 316.552 126.997H313.254V133.52C313.254 133.661 313.24 133.801 313.214 133.938C313.074 134.701 312.545 135.324 311.803 135.597C311.551 135.691 311.292 135.734 311.036 135.734L311.033 135.738ZM274.817 91.1446C270.299 91.1446 266.623 94.8202 266.623 99.3382V117.363C266.623 117.425 266.623 117.489 266.623 117.551C266.724 121.968 270.4 125.557 274.817 125.557H300.031L310.554 134.121C310.864 134.373 311.184 134.294 311.303 134.247C311.566 134.15 311.749 133.938 311.796 133.671C311.807 133.617 311.81 133.571 311.81 133.52V125.557H316.548C321.066 125.557 324.742 121.881 324.742 117.363V99.3382C324.742 94.8202 321.066 91.1446 316.548 91.1446H274.817ZM125.129 311.843C124.826 311.843 124.52 311.789 124.225 311.681C123.347 311.357 122.724 310.622 122.558 309.715C122.53 309.557 122.515 309.395 122.515 309.229V300.773H118.148C111.524 300.773 106.135 295.383 106.135 288.759V265.928C106.135 259.304 111.524 253.915 118.148 253.915H171.011C177.635 253.915 183.024 259.304 183.024 265.928V288.759C183.024 288.853 183.024 288.947 183.02 289.04C182.873 295.506 177.487 300.773 171.011 300.773H139.651L126.774 311.256C126.295 311.645 125.719 311.846 125.132 311.846L125.129 311.843ZM118.145 255.351C112.316 255.351 107.572 260.093 107.572 265.925V288.756C107.572 294.584 112.313 299.329 118.145 299.329H123.952V309.225C123.952 309.301 123.959 309.377 123.973 309.449C124.049 309.852 124.326 310.179 124.722 310.327C125.118 310.471 125.532 310.403 125.86 310.133L139.133 299.325H171.004C176.702 299.325 181.444 294.692 181.573 288.997C181.573 288.911 181.573 288.831 181.573 288.752V265.921C181.573 260.093 176.832 255.348 171 255.348H118.138L118.145 255.351Z" fill="#D7D7D7"/>
<g id="Group_2" opacity="0.5">
<path id="Vector_10" d="M150.671 229.745C156.552 229.745 161.32 224.977 161.32 219.096C161.32 213.215 156.552 208.447 150.671 208.447C144.79 208.447 140.022 213.215 140.022 219.096C140.022 224.977 144.79 229.745 150.671 229.745Z" fill="#D7D7D7"/>
<path id="Vector_11" d="M191.106 229.745C196.987 229.745 201.755 224.977 201.755 219.096C201.755 213.215 196.987 208.447 191.106 208.447C185.225 208.447 180.457 213.215 180.457 219.096C180.457 224.977 185.225 229.745 191.106 229.745Z" fill="#D7D7D7"/>
<path id="Vector_12" d="M231.541 229.745C237.422 229.745 242.19 224.977 242.19 219.096C242.19 213.215 237.422 208.447 231.541 208.447C225.66 208.447 220.892 213.215 220.892 219.096C220.892 224.977 225.66 229.745 231.541 229.745Z" fill="#D7D7D7"/>
</g>
<g id="Group_3">
<path id="Vector_13" d="M150.671 230.465C144.403 230.465 139.302 225.363 139.302 219.096C139.302 212.828 144.403 207.727 150.671 207.727C156.938 207.727 162.04 212.828 162.04 219.096C162.04 225.363 156.938 230.465 150.671 230.465ZM150.671 209.167C145.195 209.167 140.742 213.62 140.742 219.096C140.742 224.571 145.195 229.025 150.671 229.025C156.146 229.025 160.6 224.571 160.6 219.096C160.6 213.62 156.146 209.167 150.671 209.167ZM191.106 230.465C184.838 230.465 179.737 225.363 179.737 219.096C179.737 212.828 184.838 207.727 191.106 207.727C197.374 207.727 202.475 212.828 202.475 219.096C202.475 225.363 197.374 230.465 191.106 230.465ZM191.106 209.167C185.63 209.167 181.177 213.62 181.177 219.096C181.177 224.571 185.63 229.025 191.106 229.025C196.582 229.025 201.035 224.571 201.035 219.096C201.035 213.62 196.582 209.167 191.106 209.167ZM231.541 230.465C225.274 230.465 220.172 225.363 220.172 219.096C220.172 212.828 225.274 207.727 231.541 207.727C237.809 207.727 242.91 212.828 242.91 219.096C242.91 225.363 237.809 230.465 231.541 230.465ZM231.541 209.167C226.066 209.167 221.612 213.62 221.612 219.096C221.612 224.571 226.066 229.025 231.541 229.025C237.017 229.025 241.47 224.571 241.47 219.096C241.47 213.62 237.017 209.167 231.541 209.167Z" fill="#D7D7D7"/>
</g>
<path id="Vector_14" d="M290.25 312.188C286.859 312.188 284.098 309.427 284.098 306.036C284.098 302.645 286.859 299.883 290.25 299.883C293.641 299.883 296.402 302.645 296.402 306.036C296.402 309.427 293.641 312.188 290.25 312.188ZM290.25 301.323C287.651 301.323 285.538 303.437 285.538 306.036C285.538 308.635 287.651 310.748 290.25 310.748C292.849 310.748 294.962 308.635 294.962 306.036C294.962 303.437 292.849 301.323 290.25 301.323ZM57.6287 218.131C54.2375 218.131 51.4763 215.37 51.4763 211.979C51.4763 208.587 54.2375 205.826 57.6287 205.826C61.0199 205.826 63.7811 208.587 63.7811 211.979C63.7811 215.37 61.0199 218.131 57.6287 218.131ZM57.6287 207.266C55.0295 207.266 52.9163 209.379 52.9163 211.979C52.9163 214.578 55.0295 216.691 57.6287 216.691C60.2279 216.691 62.3411 214.578 62.3411 211.979C62.3411 209.379 60.2279 207.266 57.6287 207.266Z" fill="#D7D7D7"/>
<g id="Group_4">
<path id="Vector_15" d="M275.713 71.37C275.53 71.37 275.346 71.298 275.206 71.1576L265.396 61.3476C265.115 61.0668 265.115 60.6096 265.396 60.3288C265.676 60.048 266.134 60.048 266.414 60.3288L276.224 70.1388C276.505 70.4196 276.505 70.8768 276.224 71.1576C276.084 71.298 275.9 71.37 275.717 71.37H275.713Z" fill="#D7D7D7"/>
<path id="Vector_16" d="M265.903 71.37C265.72 71.37 265.536 71.298 265.396 71.1576C265.115 70.8768 265.115 70.4196 265.396 70.1388L275.206 60.3288C275.486 60.048 275.944 60.048 276.224 60.3288C276.505 60.6096 276.505 61.0668 276.224 61.3476L266.414 71.1576C266.274 71.298 266.09 71.37 265.907 71.37H265.903Z" fill="#D7D7D7"/>
</g>
<g id="Group_5">
<path id="Vector_17" opacity="0.25" d="M67.212 48.5317H220.165C238.208 48.5317 252.839 63.1621 252.839 81.2053V100.836C254.545 96.0985 257.274 91.8505 260.759 88.3621C266.882 82.2385 275.346 78.4477 284.695 78.4477H296.561C305.91 78.4477 314.37 74.6569 320.497 68.5333C326.621 62.4061 330.412 53.9461 330.412 44.5969C330.412 25.9021 315.252 10.7461 296.561 10.7461H63.4428C54.0936 10.7461 45.6336 14.5369 39.5064 20.6605C33.3828 26.7877 29.592 35.2477 29.592 44.5969C29.592 53.0857 32.7204 60.8473 37.8828 66.7909C43.2072 55.9765 54.3384 48.5317 67.212 48.5317ZM300.182 177.779V213.66C308.084 212.821 315.169 209.265 320.497 203.94C326.621 197.813 330.412 189.353 330.412 180.004C330.412 161.309 315.252 146.153 296.561 146.153H284.695C270.022 146.153 257.533 136.822 252.835 123.772V147.272C252.835 147.524 252.832 147.776 252.824 148.028H270.428C286.862 148.028 300.182 161.348 300.182 177.782V177.779ZM63.4428 213.851H64.5696C71.568 213.851 78.0696 215.975 83.466 219.611C83.484 215.615 83.5092 212.31 83.5272 210.359C82.782 209.617 82.2384 208.653 82.0296 207.522C81.9684 207.191 81.9324 206.845 81.9324 206.489V179.935H67.212C53.3592 179.935 41.5224 171.317 36.7704 159.149C32.274 164.898 29.592 172.134 29.592 179.993C29.592 198.691 44.7516 213.844 63.4428 213.844V213.851ZM296.557 281.556H253.292C252.997 282.24 252.835 282.982 252.835 283.745V306.119C252.835 310.767 247.435 313.326 243.839 310.385L207.115 280.343C206.028 279.454 204.642 279.015 203.242 279.112L187.38 280.224C187.178 280.239 186.977 280.242 186.775 280.235C186.152 280.21 184.583 280.145 182.3 280.055V288.763C182.3 288.85 182.3 288.936 182.297 289.026C182.16 295.143 177.156 300.057 171.007 300.057H139.392L126.317 310.702C125.176 311.631 123.516 310.954 123.268 309.593C123.246 309.478 123.235 309.359 123.235 309.237V300.06H118.148C111.91 300.06 106.855 295.006 106.855 288.767V277.362C106.596 277.362 106.362 277.359 106.157 277.359C101.11 277.359 95.6772 272.887 91.4796 268.247C90.5652 269.446 89.5716 270.583 88.506 271.649C82.3788 277.773 73.9116 281.563 64.5696 281.563H63.4428C54.0936 281.563 45.6336 285.351 39.5064 291.478C33.3828 297.601 29.592 306.061 29.592 315.411C29.592 334.109 44.7516 349.261 63.4428 349.261H296.557C305.906 349.261 314.366 345.471 320.494 339.347C326.617 333.223 330.408 324.76 330.408 315.411C330.408 296.716 315.248 281.563 296.557 281.563V281.556Z" fill="#D7D7D7"/>
</g>
</g>
</svg>
